<svg xmlns="http://www.w3.org/2000/svg" version="1.1" xmlns:xlink="http://www.w3.org/1999/xlink" xmlns:svgjs="http://svgjs.com/svgjs" width="1920" height="1280" preserveAspectRatio="none" viewBox="0 0 1920 1280"><g mask="url(&quot;#SvgjsMask1094&quot;)" fill="none"><rect width="1920" height="1280" x="0" y="0" fill="url(#SvgjsLinearGradient1095)"></rect><path d="M1920 0L1773.8899999999999 0L1920 349.19z" fill="rgba(255, 255, 255, .1)"></path><path d="M1773.8899999999999 0L1920 349.19L1920 498.25L1347.5099999999998 0z" fill="rgba(255, 255, 255, .075)"></path><path d="M1347.51 0L1920 498.25L1920 558.62L1259.88 0z" fill="rgba(255, 255, 255, .05)"></path><path d="M1259.88 0L1920 558.62L1920 567.77L1076.3000000000002 0z" fill="rgba(255, 255, 255, .025)"></path><path d="M0 1280L236.62 1280L0 861.26z" fill="rgba(0, 0, 0, .1)"></path><path d="M0 861.26L236.62 1280L936.85 1280L0 695.02z" fill="rgba(0, 0, 0, .075)"></path><path d="M0 695.02L936.85 1280L1406.67 1280L0 415.87z" fill="rgba(0, 0, 0, .05)"></path><path d="M0 415.87L1406.67 1280L1479.17 1280L0 179.99z" fill="rgba(0, 0, 0, .025)"></path></g><defs><mask id="SvgjsMask1094"><rect width="1920" height="1280" fill="#ffffff"></rect></mask><linearGradient x1="8.33%" y1="-12.5%" x2="91.67%" y2="112.5%" gradientUnits="userSpaceOnUse" id="SvgjsLinearGradient1095"><stop stop-color="rgba(66, 62, 224, 1)" offset="0"></stop><stop stop-color="rgba(66, 62, 224, 1)" offset="1"></stop></linearGradient></defs></svg>