<svg width="274" height="74" viewBox="0 0 274 74" fill="none" xmlns="http://www.w3.org/2000/svg">
<rect x="2" y="2" width="270" height="70" fill="#121139" fill-opacity="0.2"/>
<path d="M67.63 36.7C67.63 35.464 67.906 34.36 68.458 33.388C69.022 32.404 69.784 31.642 70.744 31.102C71.716 30.55 72.802 30.274 74.002 30.274C75.406 30.274 76.636 30.634 77.692 31.354C78.748 32.074 79.486 33.07 79.906 34.342H77.008C76.72 33.742 76.312 33.292 75.784 32.992C75.268 32.692 74.668 32.542 73.984 32.542C73.252 32.542 72.598 32.716 72.022 33.064C71.458 33.4 71.014 33.88 70.69 34.504C70.378 35.128 70.222 35.86 70.222 36.7C70.222 37.528 70.378 38.26 70.69 38.896C71.014 39.52 71.458 40.006 72.022 40.354C72.598 40.69 73.252 40.858 73.984 40.858C74.668 40.858 75.268 40.708 75.784 40.408C76.312 40.096 76.72 39.64 77.008 39.04H79.906C79.486 40.324 78.748 41.326 77.692 42.046C76.648 42.754 75.418 43.108 74.002 43.108C72.802 43.108 71.716 42.838 70.744 42.298C69.784 41.746 69.022 40.984 68.458 40.012C67.906 39.04 67.63 37.936 67.63 36.7ZM87.8904 43.126C86.7144 43.126 85.6344 42.85 84.6504 42.298C83.6664 41.746 82.8864 40.984 82.3104 40.012C81.7344 39.028 81.4464 37.918 81.4464 36.682C81.4464 35.458 81.7344 34.36 82.3104 33.388C82.8864 32.404 83.6664 31.636 84.6504 31.084C85.6344 30.532 86.7144 30.256 87.8904 30.256C89.0784 30.256 90.1584 30.532 91.1304 31.084C92.1144 31.636 92.8884 32.404 93.4524 33.388C94.0284 34.36 94.3164 35.458 94.3164 36.682C94.3164 37.918 94.0284 39.028 93.4524 40.012C92.8884 40.984 92.1144 41.746 91.1304 42.298C90.1464 42.85 89.0664 43.126 87.8904 43.126ZM87.8904 40.876C88.6464 40.876 89.3124 40.708 89.8884 40.372C90.4644 40.024 90.9144 39.532 91.2384 38.896C91.5624 38.26 91.7244 37.522 91.7244 36.682C91.7244 35.842 91.5624 35.11 91.2384 34.486C90.9144 33.85 90.4644 33.364 89.8884 33.028C89.3124 32.692 88.6464 32.524 87.8904 32.524C87.1344 32.524 86.4624 32.692 85.8744 33.028C85.2984 33.364 84.8484 33.85 84.5244 34.486C84.2004 35.11 84.0384 35.842 84.0384 36.682C84.0384 37.522 84.2004 38.26 84.5244 38.896C84.8484 39.532 85.2984 40.024 85.8744 40.372C86.4624 40.708 87.1344 40.876 87.8904 40.876ZM106.937 43H104.417L98.7112 34.378V43H96.1912V30.418H98.7112L104.417 39.058V30.418H106.937V43ZM113.766 43.126C112.89 43.126 112.098 42.976 111.39 42.676C110.694 42.376 110.142 41.944 109.734 41.38C109.326 40.816 109.116 40.15 109.104 39.382H111.804C111.84 39.898 112.02 40.306 112.344 40.606C112.68 40.906 113.136 41.056 113.712 41.056C114.3 41.056 114.762 40.918 115.098 40.642C115.434 40.354 115.602 39.982 115.602 39.526C115.602 39.154 115.488 38.848 115.26 38.608C115.032 38.368 114.744 38.182 114.396 38.05C114.06 37.906 113.592 37.75 112.992 37.582C112.176 37.342 111.51 37.108 110.994 36.88C110.49 36.64 110.052 36.286 109.68 35.818C109.32 35.338 109.14 34.702 109.14 33.91C109.14 33.166 109.326 32.518 109.698 31.966C110.07 31.414 110.592 30.994 111.264 30.706C111.936 30.406 112.704 30.256 113.568 30.256C114.864 30.256 115.914 30.574 116.718 31.21C117.534 31.834 117.984 32.71 118.068 33.838H115.296C115.272 33.406 115.086 33.052 114.738 32.776C114.402 32.488 113.952 32.344 113.388 32.344C112.896 32.344 112.5 32.47 112.2 32.722C111.912 32.974 111.768 33.34 111.768 33.82C111.768 34.156 111.876 34.438 112.092 34.666C112.32 34.882 112.596 35.062 112.92 35.206C113.256 35.338 113.724 35.494 114.324 35.674C115.14 35.914 115.806 36.154 116.322 36.394C116.838 36.634 117.282 36.994 117.654 37.474C118.026 37.954 118.212 38.584 118.212 39.364C118.212 40.036 118.038 40.66 117.69 41.236C117.342 41.812 116.832 42.274 116.16 42.622C115.488 42.958 114.69 43.126 113.766 43.126ZM122.88 30.436V38.212C122.88 39.064 123.102 39.718 123.546 40.174C123.99 40.618 124.614 40.84 125.418 40.84C126.234 40.84 126.864 40.618 127.308 40.174C127.752 39.718 127.974 39.064 127.974 38.212V30.436H130.512V38.194C130.512 39.262 130.278 40.168 129.81 40.912C129.354 41.644 128.736 42.196 127.956 42.568C127.188 42.94 126.33 43.126 125.382 43.126C124.446 43.126 123.594 42.94 122.826 42.568C122.07 42.196 121.47 41.644 121.026 40.912C120.582 40.168 120.36 39.262 120.36 38.194V30.436H122.88ZM135.467 41.002H139.607V43H132.947V30.436H135.467V41.002ZM149.759 30.436V32.47H146.411V43H143.891V32.47H140.543V30.436H149.759ZM159.301 40.606H154.297L153.469 43H150.823L155.341 30.418H158.275L162.793 43H160.129L159.301 40.606ZM158.617 38.59L156.799 33.334L154.981 38.59H158.617ZM173.032 30.436V32.47H169.684V43H167.164V32.47H163.816V30.436H173.032ZM177.391 30.436V43H174.871V30.436H177.391ZM185.713 43.126C184.537 43.126 183.457 42.85 182.473 42.298C181.489 41.746 180.709 40.984 180.133 40.012C179.557 39.028 179.269 37.918 179.269 36.682C179.269 35.458 179.557 34.36 180.133 33.388C180.709 32.404 181.489 31.636 182.473 31.084C183.457 30.532 184.537 30.256 185.713 30.256C186.901 30.256 187.981 30.532 188.953 31.084C189.937 31.636 190.711 32.404 191.275 33.388C191.851 34.36 192.139 35.458 192.139 36.682C192.139 37.918 191.851 39.028 191.275 40.012C190.711 40.984 189.937 41.746 188.953 42.298C187.969 42.85 186.889 43.126 185.713 43.126ZM185.713 40.876C186.469 40.876 187.135 40.708 187.711 40.372C188.287 40.024 188.737 39.532 189.061 38.896C189.385 38.26 189.547 37.522 189.547 36.682C189.547 35.842 189.385 35.11 189.061 34.486C188.737 33.85 188.287 33.364 187.711 33.028C187.135 32.692 186.469 32.524 185.713 32.524C184.957 32.524 184.285 32.692 183.697 33.028C183.121 33.364 182.671 33.85 182.347 34.486C182.023 35.11 181.861 35.842 181.861 36.682C181.861 37.522 182.023 38.26 182.347 38.896C182.671 39.532 183.121 40.024 183.697 40.372C184.285 40.708 184.957 40.876 185.713 40.876ZM204.759 43H202.239L196.533 34.378V43H194.013V30.418H196.533L202.239 39.058V30.418H204.759V43Z" fill="white"/>
<rect x="2" y="2" width="270" height="70" stroke="url(#paint0_linear_102_1220)" stroke-width="4"/>
<defs>
<linearGradient id="paint0_linear_102_1220" x1="0" y1="0" x2="273.481" y2="75.8696" gradientUnits="userSpaceOnUse">
<stop stop-color="#812DE2"/>
<stop offset="1" stop-color="#3A49F9"/>
</linearGradient>
</defs>
</svg>
