<svg width="1128" height="60" viewBox="0 0 1128 60" fill="none" xmlns="http://www.w3.org/2000/svg">
<path d="M720.941 42.825H746.591V17.175H720.941V42.825ZM741.654 27.532H736.234V22.112H741.654V27.532ZM725.877 22.112H731.3V32.468H741.654V37.888H725.877V22.112ZM763.294 17.175C760.757 17.175 758.278 17.9272 756.169 19.3364C754.06 20.7456 752.416 22.7486 751.445 25.0921C750.475 27.4356 750.221 30.0142 750.715 32.502C751.21 34.9898 752.432 37.275 754.225 39.0686C756.019 40.8623 758.304 42.0837 760.792 42.5786C763.28 43.0734 765.858 42.8195 768.202 41.8488C770.545 40.8781 772.548 39.2343 773.958 37.1252C775.367 35.0161 776.119 32.5365 776.119 30C776.115 26.5998 774.763 23.34 772.358 20.9357C769.954 18.5314 766.694 17.179 763.294 17.175ZM763.294 37.888C761.734 37.888 760.209 37.4254 758.912 36.5586C757.614 35.6919 756.603 34.46 756.006 33.0186C755.409 31.5773 755.253 29.9913 755.557 28.4611C755.862 26.931 756.613 25.5255 757.716 24.4223C758.819 23.3192 760.225 22.5679 761.755 22.2636C763.285 21.9592 764.871 22.1154 766.313 22.7124C767.754 23.3094 768.986 24.3205 769.853 25.6177C770.719 26.9148 771.182 28.4399 771.182 30C771.179 32.0911 770.347 34.0956 768.868 35.5742C767.389 37.0528 765.385 37.8848 763.294 37.888ZM822.013 17.175C819.476 17.1748 816.997 17.9268 814.887 19.3359C812.778 20.745 811.134 22.7479 810.163 25.0914C809.193 27.4348 808.938 30.0136 809.433 32.5014C809.928 34.9893 811.149 37.2746 812.943 39.0683C814.737 40.862 817.022 42.0836 819.51 42.5785C821.997 43.0734 824.576 42.8195 826.92 41.8489C829.263 40.8782 831.266 39.2344 832.675 37.1253C834.085 35.0162 834.837 32.5366 834.837 30C834.833 26.6 833.481 23.3403 831.077 20.9361C828.673 18.5318 825.413 17.1792 822.013 17.175ZM822.013 37.888C820.453 37.8882 818.928 37.4257 817.63 36.5591C816.333 35.6925 815.322 34.4606 814.725 33.0193C814.128 31.578 813.971 29.9919 814.275 28.4617C814.58 26.9316 815.331 25.526 816.434 24.4227C817.537 23.3194 818.943 22.5681 820.473 22.2636C822.003 21.9592 823.589 22.1153 825.03 22.7123C826.472 23.3093 827.704 24.3203 828.571 25.6176C829.437 26.9148 829.9 28.4399 829.9 30C829.897 32.0909 829.065 34.0952 827.586 35.5738C826.108 37.0524 824.104 37.8846 822.013 37.888ZM792.653 17.175C790.116 17.175 787.637 17.9272 785.528 19.3364C783.419 20.7456 781.775 22.7486 780.804 25.0921C779.833 27.4356 779.58 30.0142 780.074 32.502C780.569 34.9898 781.791 37.275 783.584 39.0686C785.378 40.8623 787.663 42.0837 790.151 42.5786C792.639 43.0734 795.217 42.8195 797.561 41.8488C799.904 40.8781 801.907 39.2343 803.317 37.1252C804.726 35.0161 805.478 32.5365 805.478 30C805.474 26.5998 804.121 23.34 801.717 20.9357C799.313 18.5314 796.053 17.179 792.653 17.175ZM792.653 37.888C791.199 37.8887 789.774 37.4878 788.534 36.7295C787.294 35.9712 786.287 34.8851 785.626 33.5909C784.964 32.2967 784.673 30.8448 784.784 29.3956C784.896 27.9463 785.405 26.556 786.257 25.3781C787.109 24.2002 788.269 23.2806 789.61 22.7207C790.952 22.1608 792.422 21.9824 793.858 22.2052C795.295 22.4281 796.641 23.0434 797.75 23.9834C798.859 24.9234 799.686 26.1515 800.141 27.532H792.653V32.468H800.141C799.62 34.0433 798.617 35.4147 797.272 36.3875C795.928 37.3604 794.312 37.8853 792.653 37.888Z" fill="white" fill-opacity="0.8"/>
<path d="M1030.59 34.5165H1033.42V48.4072H1030.59V34.5165Z" fill="white" fill-opacity="0.8"/>
<path d="M1035.06 43.6479C1035.06 42.6502 1035.35 41.6743 1035.91 40.8438C1036.46 40.0133 1037.25 39.3655 1038.17 38.9824C1039.09 38.5993 1040.1 38.4981 1041.08 38.6916C1042.06 38.8851 1042.96 39.3646 1043.67 40.0695C1044.37 40.7743 1044.85 41.6728 1045.05 42.6512C1045.24 43.6296 1045.14 44.644 1044.76 45.566C1044.38 46.4879 1043.74 47.276 1042.91 47.8305C1042.08 48.3851 1041.1 48.681 1040.1 48.681C1039.44 48.6886 1038.78 48.5637 1038.17 48.3135C1037.55 48.0634 1036.99 47.6931 1036.52 47.2243C1036.05 46.7556 1035.68 46.1978 1035.43 45.5836C1035.18 44.9695 1035.05 44.3114 1035.06 43.6479ZM1042.29 43.6479C1042.28 43.2172 1042.15 42.7993 1041.9 42.4466C1041.65 42.0938 1041.3 41.8219 1040.9 41.6647C1040.5 41.5075 1040.06 41.4722 1039.64 41.563C1039.22 41.6538 1038.84 41.8668 1038.54 42.1753C1038.23 42.4838 1038.03 42.8742 1037.95 43.2976C1037.87 43.7209 1037.92 44.1585 1038.09 44.5555C1038.25 44.9525 1038.53 45.2914 1038.89 45.5297C1039.25 45.768 1039.67 45.8952 1040.1 45.8953C1040.4 45.9036 1040.69 45.8507 1040.97 45.7399C1041.24 45.6291 1041.49 45.4629 1041.69 45.2517C1041.9 45.0405 1042.06 44.789 1042.16 44.513C1042.26 44.2369 1042.31 43.9424 1042.29 43.6479Z" fill="white" fill-opacity="0.8"/>
<path d="M1056.53 38.8886V47.935C1056.53 51.1362 1054.03 52.4866 1051.5 52.4866C1050.61 52.5528 1049.72 52.3728 1048.93 51.9664C1048.13 51.56 1047.46 50.9428 1047 50.1825L1049.43 48.7755C1049.63 49.1651 1049.93 49.4878 1050.31 49.7016C1050.69 49.9154 1051.12 50.0106 1051.56 49.9747C1051.84 50.0223 1052.14 50.0037 1052.41 49.9203C1052.69 49.837 1052.94 49.6912 1053.16 49.4941C1053.37 49.297 1053.53 49.0539 1053.63 48.7836C1053.74 48.5133 1053.78 48.223 1053.75 47.935V47.0568C1053.42 47.4666 1052.99 47.7921 1052.51 48.007C1052.03 48.2219 1051.5 48.3202 1050.97 48.2939C1049.69 48.2939 1048.46 47.7845 1047.55 46.8778C1046.65 45.9711 1046.14 44.7413 1046.14 43.459C1046.14 42.1767 1046.65 40.947 1047.55 40.0403C1048.46 39.1336 1049.69 38.6242 1050.97 38.6242C1051.5 38.6001 1052.03 38.6994 1052.51 38.9141C1052.99 39.1289 1053.41 39.4532 1053.75 39.8612V38.9169L1056.53 38.8886ZM1053.75 43.459C1053.77 42.9998 1053.65 42.5454 1053.41 42.1542C1053.17 41.7631 1052.81 41.4531 1052.39 41.2642C1051.98 41.0752 1051.51 41.0159 1051.06 41.0939C1050.6 41.1718 1050.18 41.3835 1049.85 41.7016C1049.52 42.0198 1049.29 42.4299 1049.19 42.8792C1049.1 43.3285 1049.14 43.7966 1049.31 44.2231C1049.48 44.6497 1049.77 45.0152 1050.16 45.2728C1050.54 45.5305 1050.99 45.6683 1051.44 45.6687C1051.74 45.6899 1052.05 45.6481 1052.33 45.5458C1052.61 45.4435 1052.87 45.2832 1053.09 45.075C1053.3 44.8668 1053.48 44.6154 1053.59 44.3371C1053.7 44.0588 1053.76 43.7597 1053.75 43.459Z" fill="white" fill-opacity="0.8"/>
<path d="M1058.17 43.6479C1058.17 42.6502 1058.46 41.6743 1059.01 40.8438C1059.57 40.0133 1060.35 39.3655 1061.27 38.9824C1062.2 38.5993 1063.21 38.4981 1064.19 38.6916C1065.17 38.8851 1066.07 39.3646 1066.77 40.0695C1067.48 40.7743 1067.96 41.6728 1068.16 42.6512C1068.35 43.6296 1068.25 44.644 1067.87 45.566C1067.49 46.4879 1066.84 47.276 1066.01 47.8305C1065.18 48.3851 1064.21 48.681 1063.21 48.681C1062.55 48.6886 1061.89 48.5637 1061.27 48.3135C1060.66 48.0634 1060.1 47.6931 1059.63 47.2243C1059.16 46.7556 1058.79 46.1978 1058.54 45.5836C1058.29 44.9695 1058.16 44.3114 1058.17 43.6479ZM1065.4 43.6479C1065.39 43.2172 1065.25 42.7993 1065.01 42.4466C1064.76 42.0938 1064.41 41.8219 1064.01 41.6647C1063.61 41.5075 1063.17 41.4722 1062.75 41.563C1062.33 41.6538 1061.94 41.8668 1061.64 42.1753C1061.34 42.4838 1061.14 42.8742 1061.06 43.2976C1060.98 43.7209 1061.03 44.1585 1061.19 44.5555C1061.36 44.9525 1061.64 45.2914 1062 45.5297C1062.36 45.768 1062.78 45.8952 1063.21 45.8953C1063.5 45.9009 1063.8 45.8461 1064.07 45.7341C1064.34 45.6221 1064.58 45.4555 1064.79 45.2446C1064.99 45.0338 1065.15 44.7831 1065.25 44.5084C1065.35 44.2337 1065.4 43.9407 1065.38 43.6479H1065.4Z" fill="white" fill-opacity="0.8"/>
<path d="M1069.57 36.339C1069.57 35.9991 1069.67 35.6668 1069.86 35.3842C1070.04 35.1016 1070.31 34.8813 1070.63 34.7512C1070.94 34.6211 1071.29 34.5871 1071.62 34.6534C1071.95 34.7197 1072.26 34.8834 1072.5 35.1237C1072.74 35.3641 1072.9 35.6703 1072.97 36.0037C1073.04 36.3371 1073 36.6827 1072.87 36.9967C1072.74 37.3107 1072.52 37.5792 1072.24 37.768C1071.96 37.9568 1071.62 38.0576 1071.28 38.0576C1070.83 38.0552 1070.39 37.8733 1070.07 37.5515C1069.75 37.2298 1069.57 36.7941 1069.57 36.339ZM1069.86 38.8886H1072.69V48.4072H1069.86V38.8886Z" fill="white" fill-opacity="0.8"/>
<path d="M1085.04 43.6479C1085.08 44.2771 1084.99 44.9069 1084.78 45.501C1084.57 46.0951 1084.24 46.6418 1083.82 47.1096C1083.4 47.5774 1082.89 47.9571 1082.32 48.2268C1081.75 48.4965 1081.13 48.6509 1080.5 48.6811C1079.97 48.7064 1079.45 48.6156 1078.96 48.4149C1078.47 48.2142 1078.03 47.9086 1077.67 47.5196V52.2411H1074.84V38.8886H1077.67V39.7857C1078.03 39.3967 1078.47 39.0911 1078.96 38.8904C1079.45 38.6897 1079.97 38.5989 1080.5 38.6242C1081.13 38.6544 1081.75 38.8085 1082.31 39.0776C1082.88 39.3468 1083.39 39.7256 1083.82 40.1924C1084.24 40.6592 1084.56 41.2047 1084.77 41.7977C1084.98 42.3907 1085.08 43.0195 1085.04 43.6479ZM1082.21 43.6479C1082.2 43.2047 1082.06 42.7745 1081.8 42.4106C1081.55 42.0468 1081.2 41.7651 1080.79 41.6007C1080.37 41.4362 1079.92 41.3961 1079.49 41.4854C1079.05 41.5746 1078.66 41.7893 1078.34 42.1028C1078.03 42.4163 1077.81 42.8148 1077.72 43.2491C1077.64 43.6834 1077.68 44.1343 1077.84 44.546C1078 44.9577 1078.29 45.3122 1078.65 45.5654C1079.01 45.8187 1079.44 45.9597 1079.89 45.9709C1080.2 45.9906 1080.51 45.9438 1080.8 45.8338C1081.09 45.7237 1081.35 45.5529 1081.57 45.3329C1081.79 45.1128 1081.95 44.8486 1082.06 44.558C1082.17 44.2674 1082.21 43.9571 1082.19 43.6479H1082.21Z" fill="white" fill-opacity="0.8"/>
<path d="M1093.86 45.5554C1093.86 47.7462 1091.97 48.681 1089.9 48.681C1089.07 48.7545 1088.23 48.5779 1087.51 48.174C1086.78 47.7701 1086.19 47.1574 1085.81 46.4147L1088.28 45.0077C1088.38 45.3512 1088.6 45.65 1088.89 45.8544C1089.19 46.0588 1089.54 46.1566 1089.9 46.1314C1090.59 46.1314 1090.93 45.9142 1090.93 45.5365C1090.93 44.4883 1086.2 45.0455 1086.2 41.7593C1086.2 39.6818 1087.96 38.6336 1089.98 38.6336C1090.73 38.611 1091.47 38.7881 1092.12 39.1468C1092.77 39.5054 1093.32 40.0325 1093.7 40.6733L1091.22 41.9765C1091.11 41.7271 1090.93 41.5149 1090.7 41.3657C1090.47 41.2165 1090.21 41.1367 1089.93 41.136C1089.44 41.136 1089.14 41.3249 1089.14 41.6743C1089.18 42.7602 1093.86 42.0331 1093.86 45.5554Z" fill="white" fill-opacity="0.8"/>
<path d="M1104.29 38.8886V48.4072H1101.46V47.5196C1101.13 47.914 1100.71 48.2248 1100.23 48.4267C1099.76 48.6286 1099.25 48.7157 1098.74 48.6811C1096.85 48.6811 1095.18 47.3118 1095.18 44.7339V38.8886H1098.01V44.3184C1097.98 44.5498 1098.01 44.7838 1098.09 45.0035C1098.16 45.2232 1098.29 45.423 1098.45 45.5885C1098.62 45.754 1098.81 45.8809 1099.03 45.9601C1099.25 46.0394 1099.49 46.0688 1099.72 46.0465C1100.76 46.0465 1101.48 45.4421 1101.48 44.0918V38.8886H1104.29Z" fill="white" fill-opacity="0.8"/>
<path d="M1120.66 42.5713V48.4071H1117.83V42.8169C1117.83 41.8726 1117.37 41.2493 1116.46 41.2493C1115.55 41.2493 1114.97 41.9198 1114.97 43.0435V48.4071H1112.14V42.8169C1112.14 41.8726 1111.68 41.2493 1110.77 41.2493C1109.85 41.2493 1109.28 41.9198 1109.28 43.0435V48.4071H1106.45V38.8886H1109.28V39.7668C1109.58 39.3789 1109.97 39.0712 1110.41 38.8717C1110.86 38.6721 1111.35 38.587 1111.83 38.6242C1112.32 38.6004 1112.81 38.7037 1113.24 38.9237C1113.68 39.1438 1114.05 39.4733 1114.33 39.8801C1114.64 39.4548 1115.06 39.1165 1115.54 38.8969C1116.03 38.6773 1116.56 38.5834 1117.08 38.6242C1119.24 38.6242 1120.66 40.1917 1120.66 42.5713Z" fill="white" fill-opacity="0.8"/>
<path d="M1123.08 38.832C1124.25 38.832 1125.19 37.8849 1125.19 36.7167C1125.19 35.5485 1124.25 34.6015 1123.08 34.6015C1121.91 34.6015 1120.96 35.5485 1120.96 36.7167C1120.96 37.8849 1121.91 38.832 1123.08 38.832Z" fill="white" fill-opacity="0.8"/>
<path d="M1062.64 27.3115C1068.12 27.3115 1072.55 22.8765 1072.55 17.4057C1072.55 11.9349 1068.12 7.49997 1062.64 7.49997C1057.17 7.49997 1052.74 11.9349 1052.74 17.4057C1052.74 22.8765 1057.17 27.3115 1062.64 27.3115Z" fill="white" fill-opacity="0.8"/>
<path d="M1084.79 27.3115C1090.26 27.3115 1094.69 22.8765 1094.69 17.4057C1094.69 11.9349 1090.26 7.49997 1084.79 7.49997C1079.32 7.49997 1074.88 11.9349 1074.88 17.4057C1074.88 22.8765 1079.32 27.3115 1084.79 27.3115Z" fill="white" fill-opacity="0.8"/>
<path d="M1050.41 7.49997H1030.6V27.302H1050.41V7.49997Z" fill="white" fill-opacity="0.8"/>
<path d="M27.2104 11.7353V4.23529H3.61044V55.7647H27.2104V48.2647C22.376 48.2647 17.7394 46.3403 14.321 42.915C10.9026 39.4897 8.98208 34.8441 8.98208 30C8.98208 25.1559 10.9026 20.5101 14.321 17.0849C17.7394 13.6596 22.376 11.7353 27.2104 11.7353Z" fill="white" fill-opacity="0.8"/>
<path d="M27.2104 11.7353V48.2647C32.0449 48.2647 36.6814 46.3403 40.0999 42.915C43.5184 39.4897 45.4388 34.8441 45.4388 30C45.4388 25.1559 43.5184 20.5101 40.0999 17.0849C36.6814 13.6596 32.0449 11.7353 27.2104 11.7353Z" fill="white" fill-opacity="0.8"/>
<path d="M58.683 16.3235H63.9666V41.8235H58.683V16.3235Z" fill="white" fill-opacity="0.8"/>
<path d="M66.9254 33.0882C66.9254 31.2537 67.469 29.4604 68.4874 27.9357C69.5057 26.4109 70.9529 25.2235 72.6455 24.5238C74.3382 23.8242 76.2 23.6439 77.995 24.0057C79.79 24.3674 81.4374 25.2551 82.7284 26.556C84.0193 27.8571 84.8959 29.5128 85.2467 31.3135C85.5974 33.1142 85.4068 34.9786 84.6988 36.6706C83.9908 38.3624 82.7976 39.8058 81.2701 40.8173C79.7426 41.829 77.9497 42.3634 76.1188 42.3529C74.9045 42.3625 73.7003 42.129 72.5772 41.6659C71.4541 41.2031 70.4344 40.5201 69.5781 39.6574C68.7218 38.7944 68.0462 37.7688 67.5906 36.6408C67.1351 35.5128 66.909 34.305 66.9254 33.0882ZM80.1695 33.0882C80.1488 32.2973 79.8957 31.53 79.442 30.8825C78.9883 30.2349 78.3543 29.7357 77.6188 29.4473C76.8835 29.1589 76.0797 29.0942 75.3079 29.2613C74.536 29.4282 73.8305 29.8195 73.2794 30.3863C72.7283 30.9529 72.3562 31.6698 72.2096 32.4473C72.0631 33.2248 72.1485 34.0283 72.4553 34.7573C72.7621 35.4863 73.2766 36.1087 73.9346 36.5462C74.5924 36.9838 75.3643 37.2173 76.154 37.2177C76.6917 37.2282 77.2257 37.1275 77.7227 36.9217C78.2197 36.7161 78.669 36.4099 79.0426 36.0224C79.4161 35.6349 79.7058 35.1741 79.8937 34.6694C80.0817 34.1645 80.1636 33.6263 80.1343 33.0882H80.1695Z" fill="white" fill-opacity="0.8"/>
<path d="M106.218 24.3529V40.9588C106.218 46.8176 101.639 49.3059 97.0066 49.3059C95.3727 49.4402 93.7339 49.1149 92.2748 48.3667C90.8154 47.6185 89.5935 46.4769 88.7466 45.0706L93.2024 42.4941C93.5634 43.2236 94.1378 43.8254 94.8489 44.2195C95.5601 44.6135 96.3741 44.7812 97.1827 44.7C97.6978 44.7635 98.2206 44.7124 98.7135 44.55C99.2066 44.3875 99.6577 44.118 100.035 43.7605C100.412 43.4029 100.705 42.9665 100.894 42.4821C101.083 41.9979 101.163 41.4776 101.128 40.9588V39.3529C100.513 40.0999 99.7327 40.6929 98.8493 41.085C97.9657 41.4771 97.0032 41.6575 96.0379 41.6118C93.7024 41.6118 91.4627 40.6821 89.8112 39.0274C88.1597 37.3728 87.2319 35.1284 87.2319 32.7882C87.2319 30.4481 88.1597 28.2039 89.8112 26.5491C91.4627 24.8944 93.7024 23.9647 96.0379 23.9647C97.0032 23.919 97.9657 24.0994 98.8493 24.4915C99.7327 24.8836 100.513 25.4765 101.128 26.2235V24.4588L106.218 24.3529ZM101.128 32.7353C101.163 31.8911 100.945 31.0555 100.503 30.3362C100.06 29.6169 99.4129 29.0467 98.6441 28.6989C97.8755 28.3511 97.0208 28.2417 96.1895 28.3846C95.3584 28.5275 94.5888 28.9163 93.9799 29.5009C93.3711 30.0856 92.9507 30.8395 92.7728 31.6655C92.595 32.4916 92.6677 33.3519 92.9817 34.1361C93.2959 34.9204 93.8369 35.5925 94.5353 36.0662C95.2337 36.5398 96.0576 36.7934 96.9009 36.7941C97.4513 36.8338 98.0037 36.7574 98.5226 36.57C99.0416 36.3824 99.5157 36.0879 99.9139 35.7053C100.312 35.3229 100.626 34.8609 100.835 34.3493C101.044 33.8377 101.144 33.2878 101.128 32.7353Z" fill="white" fill-opacity="0.8"/>
<path d="M109.194 33.0882C109.194 31.255 109.737 29.4632 110.754 27.9392C111.77 26.4152 113.215 25.2277 114.906 24.5271C116.597 23.8263 118.457 23.6439 120.251 24.0028C122.045 24.3618 123.692 25.2459 124.985 26.5433C126.277 27.8409 127.156 29.4933 127.511 31.2916C127.866 33.09 127.68 34.9533 126.978 36.6459C126.275 38.3386 125.087 39.7842 123.564 40.8002C122.042 41.8161 120.252 42.3565 118.423 42.3529C117.206 42.3648 115.999 42.133 114.873 41.6714C113.747 41.2098 112.724 40.5275 111.865 39.6646C111.005 38.8016 110.326 37.7755 109.867 36.6462C109.409 35.517 109.18 34.3073 109.194 33.0882ZM122.438 33.0882C122.417 32.2966 122.164 31.5286 121.709 30.8806C121.255 30.2328 120.62 29.7335 119.883 29.4457C119.147 29.1579 118.342 29.0942 117.57 29.2627C116.798 29.431 116.092 29.8242 115.542 30.3926C114.992 30.961 114.621 31.6796 114.476 32.4582C114.332 33.2368 114.42 34.0408 114.729 34.7695C115.039 35.4983 115.556 36.1193 116.216 36.5548C116.876 36.9902 117.65 37.2208 118.44 37.2176C118.978 37.2282 119.512 37.1275 120.009 36.9217C120.506 36.7161 120.955 36.4099 121.329 36.0224C121.702 35.6349 121.992 35.1741 122.18 34.6694C122.368 34.1645 122.45 33.6263 122.421 33.0882H122.438Z" fill="white" fill-opacity="0.8"/>
<path d="M130.099 19.6765C130.099 19.0553 130.283 18.4479 130.628 17.9313C130.972 17.4147 131.462 17.0121 132.035 16.7744C132.608 16.5366 133.238 16.4744 133.846 16.5956C134.454 16.7168 135.013 17.016 135.451 17.4553C135.89 17.8946 136.188 18.4544 136.309 19.0636C136.43 19.6729 136.368 20.3045 136.131 20.8786C135.893 21.4525 135.491 21.943 134.976 22.2882C134.46 22.6334 133.854 22.8176 133.234 22.8176C132.406 22.8085 131.614 22.4746 131.028 21.8875C130.442 21.3003 130.109 20.5068 130.099 19.6765ZM130.61 24.3529H135.894V41.8235H130.61V24.3529Z" fill="white" fill-opacity="0.8"/>
<path d="M158.507 33.0882C158.567 34.2501 158.396 35.4123 158.005 36.5079C157.615 37.6034 157.011 38.6107 156.231 39.4717C155.45 40.3329 154.507 41.0306 153.456 41.5251C152.405 42.0196 151.267 42.3009 150.107 42.3529C149.122 42.4186 148.136 42.2606 147.221 41.8909C146.306 41.5211 145.486 40.9491 144.823 40.2176V48.8471H139.539V24.3529H144.823V25.9941C145.487 25.2648 146.308 24.6955 147.223 24.3288C148.138 23.9619 149.123 23.8073 150.107 23.8765C151.262 23.9285 152.396 24.2082 153.443 24.6993C154.49 25.1905 155.431 25.8836 156.211 26.739C156.991 27.5943 157.596 28.5953 157.99 29.6848C158.383 30.7742 158.56 31.9306 158.507 33.0882ZM153.224 33.0882C153.203 32.2685 152.941 31.4733 152.471 30.8022C152.001 30.1311 151.344 29.6137 150.582 29.3153C149.82 29.0167 148.987 28.9503 148.187 29.1242C147.388 29.298 146.657 29.7046 146.087 30.2928C145.517 30.8809 145.133 31.6246 144.983 32.4307C144.833 33.2366 144.924 34.0691 145.244 34.8236C145.564 35.5781 146.099 36.2211 146.783 36.6722C147.466 37.1232 148.267 37.362 149.085 37.3588C149.646 37.3826 150.205 37.2875 150.726 37.0796C151.247 36.8718 151.719 36.5559 152.109 36.1526C152.5 35.7494 152.801 35.2678 152.994 34.7398C153.186 34.2116 153.264 33.6489 153.224 33.0882Z" fill="white" fill-opacity="0.8"/>
<path d="M174.587 36.5823C174.587 40.6059 171.065 42.3176 167.331 42.3176C165.808 42.4549 164.279 42.1315 162.942 41.389C161.604 40.6466 160.52 39.5193 159.828 38.1529L164.372 35.5765C164.552 36.2061 164.943 36.7548 165.478 37.1306C166.013 37.5065 166.661 37.6867 167.313 37.6412C168.564 37.6412 169.198 37.2529 169.198 36.547C169.198 34.6235 160.621 35.647 160.621 29.5941C160.621 25.7823 163.826 23.8765 167.454 23.8765C168.833 23.8145 170.204 24.1281 171.419 24.7837C172.635 25.4393 173.65 26.4125 174.358 27.6L169.814 30C169.614 29.5447 169.286 29.1575 168.87 28.885C168.454 28.6126 167.969 28.4666 167.472 28.4647C166.556 28.4647 166.01 28.8176 166.01 29.4353C166.01 31.447 174.587 30.1235 174.587 36.5823Z" fill="white" fill-opacity="0.8"/>
<path d="M193.731 24.3529V41.8235H188.448V40.1823C187.847 40.9089 187.085 41.4836 186.223 41.8608C185.36 42.2379 184.422 42.4064 183.481 42.3529C179.959 42.3529 176.947 39.8294 176.947 35.1176V24.3529H182.231V34.3235C182.188 34.7403 182.238 35.1612 182.375 35.5572C182.513 35.9531 182.733 36.3145 183.021 36.6166C183.312 36.9185 183.664 37.1539 184.054 37.3066C184.443 37.4591 184.86 37.5251 185.278 37.5C187.18 37.5 188.518 36.3706 188.518 33.9706V24.3529H193.731Z" fill="white" fill-opacity="0.8"/>
<path d="M223.672 31.0941V41.8235H218.388V31.553C218.388 29.7882 217.56 28.6941 215.887 28.6941C214.214 28.6941 213.157 29.9118 213.157 31.9765V41.8235H207.874V31.553C207.874 29.7882 207.046 28.6941 205.373 28.6941C203.7 28.6941 202.643 29.9118 202.643 31.9765V41.8235H197.359V24.353H202.643V25.9588C203.191 25.2494 203.904 24.6875 204.723 24.324C205.54 23.9605 206.437 23.8066 207.328 23.8765C208.221 23.8297 209.112 24.0168 209.911 24.419C210.711 24.8211 211.393 25.4248 211.889 26.1706C212.47 25.3913 213.238 24.7722 214.122 24.3711C215.005 23.9698 215.977 23.7997 216.944 23.8765C221.065 23.8765 223.672 26.7353 223.672 31.0941Z" fill="white" fill-opacity="0.8"/>
<path d="M228.11 24.2471C230.25 24.2471 231.984 22.5088 231.984 20.3647C231.984 18.2206 230.25 16.4824 228.11 16.4824C225.97 16.4824 224.235 18.2206 224.235 20.3647C224.235 22.5088 225.97 24.2471 228.11 24.2471Z" fill="white" fill-opacity="0.8"/>
<path d="M429.585 34.5165H432.418V48.4072H429.585V34.5165Z" fill="white" fill-opacity="0.8"/>
<path d="M434.061 43.6479C434.059 42.6502 434.353 41.6743 434.906 40.8438C435.459 40.0133 436.246 39.3655 437.167 38.9824C438.089 38.5993 439.103 38.4981 440.082 38.6916C441.06 38.8851 441.96 39.3646 442.666 40.0695C443.372 40.7743 443.853 41.6728 444.049 42.6512C444.244 43.6296 444.145 44.644 443.763 45.566C443.382 46.4879 442.736 47.276 441.906 47.8305C441.077 48.3851 440.101 48.681 439.104 48.681C438.44 48.6886 437.782 48.5637 437.167 48.3135C436.553 48.0634 435.994 47.6931 435.525 47.2243C435.055 46.7556 434.684 46.1978 434.432 45.5836C434.181 44.9695 434.055 44.3114 434.061 43.6479ZM441.294 43.6479C441.283 43.2172 441.145 42.7993 440.898 42.4466C440.651 42.0938 440.305 41.8219 439.904 41.6647C439.502 41.5075 439.064 41.4722 438.643 41.563C438.221 41.6538 437.836 41.8668 437.536 42.1753C437.235 42.4838 437.032 42.8742 436.952 43.2976C436.872 43.7209 436.918 44.1585 437.086 44.5555C437.253 44.9525 437.534 45.2914 437.893 45.5297C438.252 45.768 438.673 45.8952 439.104 45.8953C439.398 45.9036 439.692 45.8507 439.965 45.7399C440.238 45.6291 440.486 45.4629 440.692 45.2517C440.897 45.0405 441.057 44.789 441.161 44.513C441.265 44.2369 441.31 43.9424 441.294 43.6479Z" fill="white" fill-opacity="0.8"/>
<path d="M455.535 38.8886V47.935C455.535 51.1362 453.032 52.4866 450.502 52.4866C449.612 52.5528 448.721 52.3728 447.926 51.9664C447.132 51.56 446.464 50.9428 445.997 50.1825L448.434 48.7755C448.627 49.1651 448.933 49.4878 449.312 49.7016C449.69 49.9154 450.125 50.0106 450.558 49.9747C450.843 50.0223 451.136 50.0037 451.413 49.9203C451.69 49.837 451.944 49.6912 452.156 49.4941C452.367 49.297 452.531 49.0539 452.634 48.7836C452.737 48.5133 452.776 48.223 452.749 47.935V47.0568C452.416 47.4666 451.991 47.7921 451.509 48.007C451.026 48.2219 450.5 48.3202 449.973 48.2939C448.69 48.2939 447.461 47.7845 446.554 46.8778C445.647 45.9711 445.138 44.7413 445.138 43.459C445.138 42.1767 445.647 40.947 446.554 40.0403C447.461 39.1336 448.69 38.6242 449.973 38.6242C450.5 38.6001 451.025 38.6994 451.507 38.9141C451.989 39.1289 452.414 39.4532 452.749 39.8612V38.9169L455.535 38.8886ZM452.749 43.459C452.768 42.9998 452.649 42.5454 452.407 42.1542C452.166 41.7631 451.813 41.4531 451.394 41.2642C450.975 41.0752 450.509 41.0159 450.056 41.0939C449.603 41.1718 449.184 41.3835 448.852 41.7016C448.52 42.0198 448.291 42.4299 448.194 42.8792C448.098 43.3285 448.137 43.7966 448.309 44.2231C448.48 44.6497 448.775 45.0152 449.156 45.2728C449.536 45.5305 449.985 45.6683 450.445 45.6687C450.745 45.6899 451.046 45.6481 451.329 45.5458C451.612 45.4435 451.87 45.2832 452.087 45.075C452.304 44.8668 452.475 44.6154 452.589 44.3371C452.703 44.0588 452.758 43.7597 452.749 43.459Z" fill="white" fill-opacity="0.8"/>
<path d="M457.168 43.6479C457.166 42.6502 457.461 41.6743 458.014 40.8438C458.567 40.0133 459.353 39.3655 460.275 38.9824C461.196 38.5993 462.21 38.4981 463.189 38.6916C464.168 38.8851 465.067 39.3646 465.773 40.0695C466.479 40.7743 466.961 41.6728 467.156 42.6512C467.351 43.6296 467.252 44.644 466.871 45.566C466.489 46.4879 465.843 47.276 465.013 47.8305C464.184 48.3851 463.209 48.681 462.211 48.681C461.547 48.6886 460.889 48.5637 460.274 48.3135C459.66 48.0634 459.101 47.6931 458.632 47.2243C458.162 46.7556 457.791 46.1978 457.539 45.5836C457.288 44.9695 457.162 44.3114 457.168 43.6479ZM464.402 43.6479C464.391 43.2172 464.253 42.7993 464.005 42.4466C463.758 42.0938 463.412 41.8219 463.011 41.6647C462.61 41.5075 462.171 41.4722 461.75 41.563C461.329 41.6538 460.944 41.8668 460.643 42.1753C460.342 42.4838 460.139 42.8742 460.059 43.2976C459.979 43.7209 460.026 44.1585 460.193 44.5555C460.36 44.9525 460.641 45.2914 461 45.5297C461.359 45.768 461.78 45.8952 462.211 45.8953C462.504 45.9009 462.795 45.8461 463.066 45.7341C463.337 45.6221 463.583 45.4555 463.786 45.2446C463.99 45.0338 464.148 44.7831 464.251 44.5084C464.354 44.2337 464.398 43.9407 464.383 43.6479H464.402Z" fill="white" fill-opacity="0.8"/>
<path d="M468.566 36.339C468.566 35.9991 468.667 35.6668 468.856 35.3842C469.045 35.1016 469.313 34.8813 469.627 34.7512C469.941 34.6211 470.287 34.5871 470.62 34.6534C470.953 34.7197 471.26 34.8834 471.5 35.1237C471.74 35.3641 471.904 35.6703 471.97 36.0037C472.037 36.3371 472.003 36.6827 471.873 36.9967C471.743 37.3107 471.522 37.5792 471.24 37.768C470.957 37.9568 470.625 38.0576 470.285 38.0576C469.83 38.0552 469.394 37.8733 469.072 37.5515C468.75 37.2298 468.569 36.7941 468.566 36.339ZM468.859 38.8886H471.692V48.4072H468.859V38.8886Z" fill="white" fill-opacity="0.8"/>
<path d="M484.043 43.6479C484.077 44.2771 483.987 44.9069 483.777 45.501C483.567 46.0951 483.242 46.6418 482.819 47.1096C482.397 47.5774 481.887 47.9571 481.317 48.2268C480.748 48.4965 480.13 48.6509 479.501 48.6811C478.973 48.7064 478.445 48.6156 477.956 48.4149C477.466 48.2142 477.027 47.9086 476.668 47.5196V52.2411H473.835V38.8886H476.668V39.7857C477.027 39.3967 477.466 39.0911 477.956 38.8904C478.445 38.6897 478.973 38.5989 479.501 38.6242C480.13 38.6544 480.746 38.8085 481.315 39.0776C481.884 39.3468 482.394 39.7256 482.816 40.1924C483.238 40.6592 483.564 41.2047 483.774 41.7977C483.985 42.3907 484.076 43.0195 484.043 43.6479ZM481.21 43.6479C481.199 43.2047 481.058 42.7745 480.805 42.4106C480.551 42.0468 480.197 41.7651 479.785 41.6007C479.374 41.4362 478.923 41.3961 478.488 41.4854C478.054 41.5746 477.656 41.7893 477.342 42.1028C477.029 42.4163 476.814 42.8148 476.725 43.2491C476.635 43.6834 476.676 44.1343 476.84 44.546C477.004 44.9577 477.286 45.3122 477.65 45.5654C478.014 45.8187 478.444 45.9597 478.887 45.9709C479.197 45.9906 479.506 45.9438 479.796 45.8338C480.086 45.7237 480.349 45.5529 480.567 45.3329C480.785 45.1128 480.954 44.8486 481.062 44.558C481.169 44.2674 481.214 43.9571 481.191 43.6479H481.21Z" fill="white" fill-opacity="0.8"/>
<path d="M492.863 45.5554C492.863 47.7462 490.974 48.681 488.897 48.681C488.067 48.7545 487.234 48.5779 486.505 48.174C485.777 47.7701 485.186 47.1574 484.808 46.4147L487.282 45.0077C487.383 45.3512 487.598 45.65 487.891 45.8544C488.185 46.0588 488.54 46.1566 488.897 46.1314C489.586 46.1314 489.926 45.9142 489.926 45.5365C489.926 44.4883 485.205 45.0455 485.205 41.7593C485.205 39.6818 486.961 38.6336 488.982 38.6336C489.728 38.611 490.466 38.7881 491.12 39.1468C491.774 39.5054 492.321 40.0325 492.703 40.6733L490.219 41.9765C490.109 41.7271 489.93 41.5149 489.702 41.3657C489.474 41.2165 489.207 41.1367 488.935 41.136C488.444 41.136 488.142 41.3249 488.142 41.6743C488.179 42.7602 492.863 42.0331 492.863 45.5554Z" fill="white" fill-opacity="0.8"/>
<path d="M503.288 38.8886V48.4072H500.455V47.5196C500.126 47.914 499.707 48.2248 499.235 48.4267C498.762 48.6286 498.248 48.7157 497.735 48.6811C495.847 48.6811 494.175 47.3118 494.175 44.7339V38.8886H497.008V44.3184C496.983 44.5498 497.01 44.7838 497.087 45.0035C497.164 45.2232 497.289 45.423 497.452 45.5885C497.616 45.754 497.815 45.8809 498.033 45.9601C498.252 46.0394 498.486 46.0688 498.718 46.0465C499.756 46.0465 500.483 45.4421 500.483 44.0918V38.8886H503.288Z" fill="white" fill-opacity="0.8"/>
<path d="M519.662 42.5713V48.4071H516.829V42.8169C516.829 41.8726 516.367 41.2493 515.46 41.2493C514.554 41.2493 513.968 41.9198 513.968 43.0435V48.4071H511.135V42.8169C511.135 41.8726 510.682 41.2493 509.766 41.2493C508.85 41.2493 508.283 41.9198 508.283 43.0435V48.4071H505.451V38.8886H508.283V39.7668C508.58 39.3789 508.968 39.0712 509.413 38.8717C509.858 38.6721 510.347 38.587 510.833 38.6242C511.322 38.6004 511.808 38.7037 512.245 38.9237C512.682 39.1438 513.054 39.4733 513.326 39.8801C513.642 39.4548 514.061 39.1165 514.543 38.8969C515.025 38.6773 515.555 38.5834 516.083 38.6242C518.236 38.6242 519.662 40.1917 519.662 42.5713Z" fill="white" fill-opacity="0.8"/>
<path d="M522.08 38.832C523.248 38.832 524.195 37.8849 524.195 36.7167C524.195 35.5485 523.248 34.6015 522.08 34.6015C520.912 34.6015 519.964 35.5485 519.964 36.7167C519.964 37.8849 520.912 38.832 522.08 38.832Z" fill="white" fill-opacity="0.8"/>
<path d="M461.644 27.3115C467.115 27.3115 471.55 22.8765 471.55 17.4057C471.55 11.9349 467.115 7.49997 461.644 7.49997C456.174 7.49997 451.739 11.9349 451.739 17.4057C451.739 22.8765 456.174 27.3115 461.644 27.3115Z" fill="white" fill-opacity="0.8"/>
<path d="M483.788 27.3115C489.259 27.3115 493.694 22.8765 493.694 17.4057C493.694 11.9349 489.259 7.49997 483.788 7.49997C478.317 7.49997 473.882 11.9349 473.882 17.4057C473.882 22.8765 478.317 27.3115 483.788 27.3115Z" fill="white" fill-opacity="0.8"/>
<path d="M449.406 7.49997H429.604V27.302H449.406V7.49997Z" fill="white" fill-opacity="0.8"/>
</svg>
